<?xml version="1.0" ?><!DOCTYPE svg  PUBLIC '-//W3C//DTD SVG 1.1//EN'  'http://www.w3.org/Graphics/SVG/1.1/DTD/svg11.dtd'><svg enable-background="new 0 0 550 550" id="Layer_1" version="1.1" viewBox="0 0 550 550" xml:space="preserve" xmlns="http://www.w3.org/2000/svg" xmlns:xlink="http://www.w3.org/1999/xlink"><g><g><circle cx="275" cy="275" fill="#F7941E" r="256"/><path clip-rule="evenodd" d="M380,257l-1.8-3.7l-3-2.3c-3.9-3.1-23.6,0.2-28.9-4.6     c-3.8-3.5-4.3-9.7-5.5-18.1c-2.1-16.4-3.5-17.2-6-22.8c-9.3-19.7-34.4-34.5-51.7-36.5h-46.8c-36.8,0-66.9,30.2-66.9,67v78.1     c0,36.8,30.1,66.9,66.9,66.9h76.9c36.8,0,66.7-30.1,66.9-66.9l0.4-54.1L380,257z M237.2,223.7h37.1c7.1,0,12.8,5.7,12.8,12.8     c0,7-5.7,12.8-12.8,12.8h-37.1c-7.1,0-12.8-5.8-12.8-12.8C224.3,229.5,230.1,223.7,237.2,223.7z M312.6,325.9h-75.5     c-7.1,0-12.8-5.8-12.8-12.8c0-7,5.7-12.7,12.8-12.7h75.5c7,0,12.7,5.7,12.7,12.7C325.4,320.1,319.6,325.9,312.6,325.9z" fill="#FFFFFF" fill-rule="evenodd"/></g></g></svg>